# Wavefront OBJ file
# Exported by Maverick Model 3D 1.3.14
# Fri Jan 12 04:06:12 2024

# 38 Vertices
v 0.0 -0.024255 -0.264833
v 0.0 0.035745 -0.294833
v 0.211095 -0.024255 -0.163175
v 0.234549 0.035745 -0.18188
v 0.263231 -0.024255 0.065248
v 0.292478 0.035745 0.071923
v 0.117149 -0.024255 0.248429
v 0.130165 0.035745 0.275458
v -0.117149 -0.024255 0.248429
v -0.130165 0.035745 0.275458
v -0.263231 -0.024255 0.065248
v -0.292478 0.035745 0.071923
v -0.211095 -0.024255 -0.163175
v -0.234549 0.035745 -0.18188
v -0.1188 -0.258255 0.076567
v -0.1188 -0.018255 0.076567
v -0.1188 -0.258255 -0.066233
v -0.1188 -0.018255 -0.066233
v 0.1188 -0.258255 0.076567
v 0.1188 -0.018255 0.076567
v 0.1188 -0.258255 -0.066233
v 0.1188 -0.018255 -0.066233
v 0.09024 -0.258255 -0.066233
v -0.09024 -0.258255 -0.066233
v -0.09024 -0.018255 -0.066233
v 0.09024 -0.018255 -0.066233
v -0.09024 -0.258255 0.076567
v 0.09024 -0.258255 0.076567
v 0.09024 -0.018255 0.076567
v -0.09024 -0.018255 0.076567
v -0.1188 -0.282255 -0.042433
v -0.1188 -0.282255 0.052767
v -0.09024 -0.282255 -0.042433
v -0.09024 -0.282255 0.052767
v 0.1188 -0.282255 0.052767
v 0.1188 -0.282255 -0.042433
v 0.09024 -0.282255 -0.042433
v 0.09024 -0.282255 0.052767

# 165 Texture Coordinates
vt 0.773284 0.0
vt 0.832933 0.284246
vt 0.754929 0.07573
vt 0.877141 0.260941
vt 0.802248 0.5478
vt 0.832933 0.284246
vt 0.841728 0.609007
vt 0.683431 0.670644
vt 0.802248 0.5478
vt 0.681359 0.764066
vt 0.56579 0.555565
vt 0.683431 0.670644
vt 0.52736 0.606342
vt 0.54349 0.29424
vt 0.56579 0.555565
vt 0.54349 0.29424
vt 0.607811 0.0
vt 0.625886 0.082096
vt 0.607811 0.0
vt 0.754929 0.07573
vt 0.625886 0.082096
vt 0.832933 0.284246
vt 0.683431 0.670644
vt 0.54349 0.29424
vt 0.908149 0.623534
vt 0.8824 0.227353
vt 0.885094 0.096802
vt 0.937574 0.611577
vt 0.988 0.226305
vt 0.965321 0.228038
vt 0.986725 0.564446
vt 0.978909 0.1605
vt 0.97521 0.192948
vt 0.877141 0.784451
vt 0.897409 0.181985
vt 0.877141 0.168389
vt 0.975241 0.0
vt 1.0 0.194933
vt 0.978049 0.103542
vt 0.88641 0.0
vt 0.897409 0.181985
vt 0.885094 0.096802
vt 0.96608 0.617563
vt 1.0 0.194933
vt 0.978909 0.1605
vt 0.937574 0.611577
vt 0.97519 0.20019
vt 1.0 0.194933
vt 0.886814 0.56719
vt 0.905693 0.221152
vt 0.8824 0.227353
vt 0.877141 0.168389
vt 0.891452 0.18959
vt 0.937574 0.610095
vt 0.905693 0.221152
vt 0.891196 0.196333
vt 0.8824 0.227353
vt 0.891452 0.18959
vt 0.885094 0.096802
vt 0.891196 0.196333
vt 0.988 0.226305
vt 0.97519 0.20019
vt 0.965321 0.228038
vt 0.97521 0.192948
vt 0.978049 0.103542
vt 0.97519 0.20019
vt 0.773284 0.0
vt 0.877141 0.260941
vt 0.832933 0.284246
vt 0.877141 0.260941
vt 0.841728 0.609007
vt 0.802248 0.5478
vt 0.841728 0.609007
vt 0.681359 0.764066
vt 0.683431 0.670644
vt 0.681359 0.764066
vt 0.52736 0.606342
vt 0.56579 0.555565
vt 0.52736 0.606342
vt 0.5 0.267557
vt 0.54349 0.29424
vt 0.54349 0.29424
vt 0.5 0.267557
vt 0.607811 0.0
vt 0.607811 0.0
vt 0.773284 0.0
vt 0.754929 0.07573
vt 0.625886 0.082096
vt 0.754929 0.07573
vt 0.832933 0.284246
vt 0.832933 0.284246
vt 0.802248 0.5478
vt 0.683431 0.670644
vt 0.683431 0.670644
vt 0.56579 0.555565
vt 0.54349 0.29424
vt 0.54349 0.29424
vt 0.625886 0.082096
vt 0.832933 0.284246
vt 0.885094 0.096802
vt 0.897409 0.181985
vt 0.908149 0.623534
vt 0.908149 0.623534
vt 0.886814 0.56719
vt 0.8824 0.227353
vt 0.8824 0.227353
vt 0.891196 0.196333
vt 0.885094 0.096802
vt 0.937574 0.611577
vt 0.986725 0.564446
vt 0.988 0.226305
vt 0.97521 0.192948
vt 0.988 0.226305
vt 0.986725 0.564446
vt 0.986725 0.564446
vt 0.96608 0.617563
vt 0.978909 0.1605
vt 0.978909 0.1605
vt 0.975241 0.0
vt 0.97521 0.192948
vt 0.877141 0.784451
vt 0.908149 0.623534
vt 0.897409 0.181985
vt 0.975241 0.0
vt 0.978909 0.1605
vt 1.0 0.194933
vt 0.88641 0.0
vt 0.877141 0.168389
vt 0.897409 0.181985
vt 0.96608 0.617563
vt 1.0 0.783069
vt 1.0 0.194933
vt 1.0 0.194933
vt 1.0 0.783069
vt 0.937574 0.611577
vt 0.937574 0.611577
vt 0.965321 0.228038
vt 0.97519 0.20019
vt 0.97519 0.20019
vt 0.978049 0.103542
vt 1.0 0.194933
vt 0.886814 0.56719
vt 0.937574 0.610095
vt 0.905693 0.221152
vt 0.937574 0.610095
vt 0.877141 0.784451
vt 0.877141 0.168389
vt 0.877141 0.168389
vt 0.88641 0.0
vt 0.891452 0.18959
vt 0.891452 0.18959
vt 0.905693 0.221152
vt 0.937574 0.610095
vt 0.905693 0.221152
vt 0.891452 0.18959
vt 0.891196 0.196333
vt 0.891452 0.18959
vt 0.88641 0.0
vt 0.885094 0.096802
vt 0.988 0.226305
vt 0.97521 0.192948
vt 0.97519 0.20019
vt 0.97521 0.192948
vt 0.975241 0.0
vt 0.978049 0.103542

# 165 Vertex Normals
vn 0.395596 -0.410731 -0.821464
vn 0.395596 -0.410731 -0.821464
vn 0.395596 -0.410732 -0.821464
vn 0.888901 -0.410722 -0.202886
vn 0.888901 -0.410722 -0.202886
vn 0.888901 -0.410721 -0.202886
vn 0.712844 -0.410722 0.568473
vn 0.712844 -0.410722 0.568473
vn 0.712844 -0.410719 0.568474
vn 0.0 -0.41073 0.911757
vn 0.0 -0.41073 0.911757
vn 0.0 -0.41073 0.911757
vn -0.712844 -0.410722 0.568473
vn -0.712844 -0.410722 0.568473
vn -0.712842 -0.410725 0.568473
vn -0.888901 -0.410722 -0.202886
vn -0.888901 -0.410722 -0.202886
vn -0.888901 -0.410721 -0.202886
vn -0.395596 -0.410731 -0.821464
vn -0.395596 -0.410731 -0.821464
vn -0.395596 -0.41073 -0.821465
vn 0.0 -1.0 0.0
vn 0.0 -1.0 0.0
vn 0.0 -1.0 0.0
vn -1.0 0.0 0.0
vn -1.0 0.0 0.0
vn -1.0 0.0 0.0
vn 0.0 0.0 -1.0
vn 0.0 -0.38075 -0.924678
vn 0.0 -0.38075 -0.924678
vn 1.0 0.0 -0.0
vn 1.0 0.0 0.0
vn 1.0 0.0 -0.0
vn 0.0 0.0 1.0
vn 0.0 -0.38075 0.924678
vn 0.0 -0.38075 0.924678
vn 0.0 -0.704143 0.710059
vn 0.0 -0.38075 0.924678
vn 0.0 -0.704143 0.710059
vn 0.0 -0.704142 0.710059
vn 0.0 -0.38075 0.924678
vn 0.0 -0.704142 0.710059
vn 0.0 0.0 1.0
vn 0.0 -0.38075 0.924678
vn 0.0 -0.38075 0.924678
vn -1.0 0.0 0.0
vn -1.0 0.0 0.0
vn -1.0 0.0 0.0
vn 0.0 0.0 -1.0
vn 0.0 -0.38075 -0.924678
vn 0.0 -0.38075 -0.924678
vn 1.0 0.0 0.0
vn 1.0 0.0 -0.0
vn 1.0 0.0 -0.0
vn 0.0 -0.38075 -0.924678
vn 0.0 -0.704142 -0.710059
vn 0.0 -0.38075 -0.924678
vn 0.0 -1.0 0.0
vn 0.0 -1.0 0.0
vn 0.0 -1.0 0.0
vn 0.0 -0.38075 -0.924678
vn 0.0 -0.704143 -0.710059
vn 0.0 -0.38075 -0.924678
vn 0.0 -1.0 0.0
vn 0.0 -1.0 0.0
vn 0.0 -1.0 0.0
vn 0.395596 -0.410731 -0.821464
vn 0.395597 -0.41073 -0.821464
vn 0.395596 -0.410731 -0.821464
vn 0.888901 -0.410722 -0.202886
vn 0.8889 -0.410723 -0.202886
vn 0.888901 -0.410722 -0.202886
vn 0.712844 -0.410722 0.568473
vn 0.712843 -0.410725 0.568471
vn 0.712844 -0.410722 0.568473
vn 0.0 -0.41073 0.911757
vn 0.0 -0.41073 0.911757
vn 0.0 -0.41073 0.911757
vn -0.712844 -0.410722 0.568473
vn -0.712845 -0.410719 0.568473
vn -0.712844 -0.410722 0.568473
vn -0.888901 -0.410722 -0.202886
vn -0.8889 -0.410723 -0.202886
vn -0.888901 -0.410722 -0.202886
vn -0.395596 -0.410731 -0.821464
vn -0.395597 -0.410732 -0.821464
vn -0.395596 -0.410731 -0.821464
vn 0.0 -1.0 0.0
vn 0.0 -1.0 0.0
vn 0.0 -1.0 0.0
vn 0.0 -1.0 0.0
vn 0.0 -1.0 0.0
vn 0.0 -1.0 0.0
vn 0.0 -1.0 0.0
vn 0.0 -1.0 0.0
vn 0.0 -1.0 0.0
vn 0.0 -1.0 0.0
vn 0.0 -1.0 0.0
vn 0.0 -1.0 0.0
vn -1.0 0.0 0.0
vn -1.0 0.0 0.0
vn -1.0 0.0 0.0
vn -1.0 0.0 0.0
vn -1.0 0.0 0.0
vn -1.0 0.0 0.0
vn -1.0 0.0 0.0
vn -1.0 0.0 0.0
vn -1.0 0.0 0.0
vn 0.0 0.0 -1.0
vn 0.0 0.0 -1.0
vn 0.0 -0.38075 -0.924678
vn 1.0 0.0 -0.0
vn 1.0 0.0 -0.0
vn 1.0 0.0 -0.0
vn 1.0 0.0 -0.0
vn 1.0 0.0 0.0
vn 1.0 0.0 0.0
vn 1.0 0.0 0.0
vn 1.0 0.0 0.0
vn 1.0 0.0 -0.0
vn 0.0 0.0 1.0
vn 0.0 0.0 1.0
vn 0.0 -0.38075 0.924678
vn 0.0 -0.704143 0.710059
vn 0.0 -0.38075 0.924678
vn 0.0 -0.38075 0.924678
vn 0.0 -0.704142 0.710059
vn 0.0 -0.38075 0.924678
vn 0.0 -0.38075 0.924678
vn 0.0 0.0 1.0
vn 0.0 0.0 1.0
vn 0.0 -0.38075 0.924678
vn -1.0 0.0 0.0
vn -1.0 0.0 0.0
vn -1.0 0.0 0.0
vn -1.0 0.0 0.0
vn -1.0 0.0 0.0
vn -1.0 0.0 0.0
vn -1.0 0.0 0.0
vn -1.0 0.0 0.0
vn -1.0 0.0 0.0
vn 0.0 0.0 -1.0
vn 0.0 0.0 -1.0
vn 0.0 -0.38075 -0.924678
vn 1.0 0.0 -0.0
vn 1.0 0.0 0.0
vn 1.0 0.0 0.0
vn 1.0 0.0 0.0
vn 1.0 0.0 0.0
vn 1.0 0.0 -0.0
vn 1.0 0.0 -0.0
vn 1.0 0.0 -0.0
vn 1.0 0.0 -0.0
vn 0.0 -0.38075 -0.924678
vn 0.0 -0.704142 -0.710059
vn 0.0 -0.704142 -0.710059
vn 0.0 -1.0 0.0
vn 0.0 -1.0 0.0
vn 0.0 -1.0 0.0
vn 0.0 -0.38075 -0.924678
vn 0.0 -0.704143 -0.710059
vn 0.0 -0.704143 -0.710059
vn 0.0 -1.0 0.0
vn 0.0 -1.0 0.0
vn 0.0 -1.0 0.0

# 55 Ungrouped triangles

o ungrouped
g ungrouped

f 2/1/1 3/2/2 1/3/3
f 4/4/4 5/5/5 3/6/6
f 6/7/7 7/8/8 5/9/9
f 8/10/10 9/11/11 7/12/12
f 10/13/13 11/14/14 9/15/15
f 11/16/16 14/17/17 13/18/18
f 14/19/19 1/20/20 13/21/21
f 3/22/22 7/23/23 11/24/24
f 16/25/25 17/26/26 32/27/27
f 26/28/28 21/29/29 23/30/30
f 22/31/31 19/32/32 36/33/33
f 30/34/34 15/35/35 27/36/36
f 35/37/37 28/38/38 38/39/39
f 34/40/40 15/41/41 32/42/42
f 20/43/43 28/44/44 19/45/45
f 26/46/46 37/47/47 28/48/48
f 18/49/49 24/50/50 17/51/51
f 27/52/52 33/53/53 25/54/54
f 24/55/55 31/56/56 17/57/57
f 33/58/58 32/59/59 31/60/60
f 21/61/61 37/62/62 23/63/63
f 36/64/64 38/65/65 37/66/66
f 2/67/67 4/68/68 3/69/69
f 4/70/70 6/71/71 5/72/72
f 6/73/73 8/74/74 7/75/75
f 8/76/76 10/77/77 9/78/78
f 10/79/79 12/80/80 11/81/81
f 11/82/82 12/83/83 14/84/84
f 14/85/85 2/86/86 1/87/87
f 13/88/88 1/89/89 3/90/90
f 3/91/91 5/92/92 7/93/93
f 7/94/94 9/95/95 11/96/96
f 11/97/97 13/98/98 3/99/99
f 32/100/100 15/101/101 16/102/102
f 16/103/103 18/104/104 17/105/105
f 17/106/106 31/107/107 32/108/108
f 26/109/109 22/110/110 21/111/111
f 36/112/112 21/113/113 22/114/114
f 22/115/115 20/116/116 19/117/117
f 19/118/118 35/119/119 36/120/120
f 30/121/121 16/122/122 15/123/123
f 35/124/124 19/125/125 28/126/126
f 34/127/127 27/128/128 15/129/129
f 20/130/130 29/131/131 28/132/132
f 28/133/133 29/134/134 26/135/135
f 26/136/136 23/137/137 37/138/138
f 37/139/139 38/140/140 28/141/141
f 18/142/142 25/143/143 24/144/144
f 25/145/145 30/146/146 27/147/147
f 27/148/148 34/149/149 33/150/150
f 33/151/151 24/152/152 25/153/153
f 24/154/154 33/155/155 31/156/156
f 33/157/157 34/158/158 32/159/159
f 21/160/160 36/161/161 37/162/162
f 36/163/163 35/164/164 38/165/165
